<?xml version="1.0" encoding="UTF-8" standalone="no"?>
<!-- Created with Inkscape (http://www.inkscape.org/) -->

<svg
   xmlns:dc="http://purl.org/dc/elements/1.1/"
   xmlns:cc="http://creativecommons.org/ns#"
   xmlns:rdf="http://www.w3.org/1999/02/22-rdf-syntax-ns#"
   xmlns:svg="http://www.w3.org/2000/svg"
   xmlns="http://www.w3.org/2000/svg"
   xmlns:sodipodi="http://sodipodi.sourceforge.net/DTD/sodipodi-0.dtd"
   xmlns:inkscape="http://www.inkscape.org/namespaces/inkscape"
   width="25"
   height="25"
   viewBox="0 0 6.6145832 6.6145835"
   version="1.1"
   id="svg8"
   inkscape:version="0.92.4 (5da689c313, 2019-01-14)"
   sodipodi:docname="upup.svg">
  <defs
     id="defs2" />
  <sodipodi:namedview
     id="base"
     pagecolor="#ffffff"
     bordercolor="#666666"
     borderopacity="1.0"
     inkscape:pageopacity="0.0"
     inkscape:pageshadow="2"
     inkscape:zoom="22.4"
     inkscape:cx="11.691923"
     inkscape:cy="16.503816"
     inkscape:document-units="mm"
     inkscape:current-layer="layer1"
     showgrid="true"
     units="px"
     inkscape:window-width="1920"
     inkscape:window-height="1001"
     inkscape:window-x="-9"
     inkscape:window-y="-9"
     inkscape:window-maximized="1">
    <inkscape:grid
       type="xygrid"
       id="grid10" />
  </sodipodi:namedview>
  <metadata
     id="metadata5">
    <rdf:RDF>
      <cc:Work
         rdf:about="">
        <dc:format>image/svg+xml</dc:format>
        <dc:type
           rdf:resource="http://purl.org/dc/dcmitype/StillImage" />
        <dc:title />
      </cc:Work>
    </rdf:RDF>
  </metadata>
  <g
     inkscape:label="Layer 1"
     inkscape:groupmode="layer"
     id="layer1"
     transform="translate(0,-290.3854)">
    <g
       id="g22"
       transform="matrix(0.66666689,0,0,1.1712999,1.1024297,-49.541525)">
      <path
         style="opacity:1;fill:#000000;fill-opacity:1;stroke:none;stroke-width:0.10215068;stroke-miterlimit:4;stroke-dasharray:none;stroke-opacity:1"
         d="m 3.3072918,290.6615 c 0.2198688,0 0.396875,0.1847 0.396875,0.41413 v 4.14129 c 0,0.22943 -0.1770062,0.41413 -0.396875,0.41413 -0.2198687,0 -0.396875,-0.1847 -0.396875,-0.41413 v -4.14129 c 0,-0.22943 0.1770063,-0.41413 0.396875,-0.41413 z"
         id="rect56"
         inkscape:connector-curvature="0" />
    </g>
    <g
       id="g60"
       transform="translate(-0.13228579)">
      <path
         transform="matrix(0.77250873,-0.63500414,0.63501382,0.77250077,0,0)"
         style="opacity:1;fill:#000000;fill-opacity:1;stroke:none;stroke-width:0.10954382;stroke-miterlimit:4;stroke-dasharray:none;stroke-opacity:1"
         d="m -184.65208,226.5094 h 2.64583 c 0.14657,0 0.26458,0.118 0.26458,0.26458 0,0.14658 -0.11801,0.26458 -0.26458,0.26458 h -2.64583 c -0.14657,0 -0.26458,-0.118 -0.26458,-0.26458 0,-0.14658 0.11801,-0.26458 0.26458,-0.26458 z"
         id="rect12"
         inkscape:connector-curvature="0" />
      <path
         transform="matrix(-0.77250394,-0.63500997,-0.63500801,0.77250555,0,0)"
         style="opacity:1;fill:#000000;fill-opacity:1;stroke:none;stroke-width:0.10954452;stroke-miterlimit:4;stroke-dasharray:none;stroke-opacity:1"
         d="m -189.96457,222.13969 h 2.64583 c 0.14658,0 0.26458,0.11801 0.26458,0.26459 0,0.14658 -0.118,0.26458 -0.26458,0.26458 h -2.64583 c -0.14658,0 -0.26459,-0.118 -0.26459,-0.26458 0,-0.14658 0.11801,-0.26459 0.26459,-0.26459 z"
         id="rect24"
         inkscape:connector-curvature="0" />
    </g>
  </g>
</svg>
